<svg height="512" viewBox="0 0 64 64" width="512" xmlns="http://www.w3.org/2000/svg"><path d="m61 11v48a2.006 2.006 0 0 1 -2 2h-2a11.984 11.984 0 0 0 -12-12h-8a12 12 0 0 0 -12 12h-20a2.006 2.006 0 0 1 -2-2v-48z" fill="#57a4ff"/><path d="m61 5v6h-58v-6a2.006 2.006 0 0 1 2-2h54a2.006 2.006 0 0 1 2 2z" fill="#ffeb99"/><path d="m57 61h-32a12 12 0 0 1 12-12l1.24 8h5.52l1.24-8a11.984 11.984 0 0 1 12 12z" fill="#ff7956"/><path d="m50 40v1a1 1 0 0 1 -1 1h-2v-3h2a1 1 0 0 1 1 1z" fill="#ffc477"/><path d="m50 35v1l-3 3v-3l-8-2-4 2v3l-3-3v-1a6 6 0 0 1 6-6h6a6 6 0 0 1 6 6z" fill="#c0ab91"/><path d="m47 39v3a6 6 0 0 1 -12 0v-6l4-2 8 2z" fill="#ffdaaa"/><path d="m45 49-1.24 8h-5.52l-1.24-8z" fill="#ffeb99"/><path d="m35 39v3h-2a1 1 0 0 1 -1-1v-1a1 1 0 0 1 1-1z" fill="#ffc477"/><path d="m29 17v12a2.006 2.006 0 0 1 -2 2h-4l2 6-6-6h-10a2.006 2.006 0 0 1 -2-2v-12a2.006 2.006 0 0 1 2-2h18a2.006 2.006 0 0 1 2 2z" fill="#ff7956"/><path d="m59 2h-54a3 3 0 0 0 -3 3v54a3 3 0 0 0 3 3h54a3 3 0 0 0 3-3v-54a3 3 0 0 0 -3-3zm-54 2h54a1 1 0 0 1 1 1v5h-56v-5a1 1 0 0 1 1-1zm21.045 56a11.012 11.012 0 0 1 10.1-9.959l1.1 7.112a1 1 0 0 0 .988.847h5.518a1 1 0 0 0 .988-.847l1.1-7.112a11.012 11.012 0 0 1 10.116 9.959zm7.955-19h-1v-1h1zm.553-5.9a1 1 0 0 0 -.553.9v.586l-1-1v-.586a5.006 5.006 0 0 1 5-5h6a5.006 5.006 0 0 1 5 5v.586l-1 1v-.586a1 1 0 0 0 -.757-.97l-8-2a1 1 0 0 0 -.69.075zm13.447 4.9h1v1h-1zm-12-3.382 3.116-1.558 6.884 1.721v5.219a5 5 0 0 1 -10 0zm7.833 13.382-.933 6h-3.8l-.931-6zm15.167 10h-1.051a13.008 13.008 0 0 0 -12.949-12h-.413a7 7 0 0 0 3.333-5h1.08a2 2 0 0 0 2-2v-1a2 2 0 0 0 -1.624-1.962l1.331-1.331a1 1 0 0 0 .293-.707v-1a7.008 7.008 0 0 0 -7-7h-6a7.008 7.008 0 0 0 -7 7v1a1 1 0 0 0 .293.707l1.331 1.331a2 2 0 0 0 -1.624 1.962v1a2 2 0 0 0 2 2h1.08a7 7 0 0 0 3.333 5h-.413a13.008 13.008 0 0 0 -12.949 12h-19.051a1 1 0 0 1 -1-1v-47h56v47a1 1 0 0 1 -1 1z"/><path d="m6 6h2v2h-2z"/><path d="m10 6h2v2h-2z"/><path d="m14 6h2v2h-2z"/><path d="m10 18h16v2h-16z"/><path d="m10 22h16v2h-16z"/><path d="m10 26h16v2h-16z"/><path d="m27 14h-18a3 3 0 0 0 -3 3v12a3 3 0 0 0 3 3h9.586l5.707 5.707a1 1 0 0 0 1.656-1.023l-1.562-4.684h2.613a3 3 0 0 0 3-3v-12a3 3 0 0 0 -3-3zm1 15a1 1 0 0 1 -1 1h-4a1 1 0 0 0 -.949 1.316l.661 1.981-3-3a1 1 0 0 0 -.712-.297h-10a1 1 0 0 1 -1-1v-12a1 1 0 0 1 1-1h18a1 1 0 0 1 1 1z"/></svg>