<?xml version="1.0" encoding="iso-8859-1"?>
<!-- Generator: Adobe Illustrator 21.0.0, SVG Export Plug-In . SVG Version: 6.00 Build 0)  -->
<svg xmlns="http://www.w3.org/2000/svg" xmlns:xlink="http://www.w3.org/1999/xlink" version="1.1" id="Capa_1" x="0px" y="0px" viewBox="0 0 512 512" style="enable-background:new 0 0 512 512;" xml:space="preserve" width="512" height="512">
<g>
	<path style="fill:#FFCCBC;" d="M256,285.478c-23.121,0-70.415-26.585-73.241-64.948l-5.359-72.764   c-3.364-45.683,32.792-84.601,78.599-84.601s81.964,38.918,78.6,84.601l-5.359,72.764C326.415,258.893,279.121,285.478,256,285.478   z"/>
	<rect x="32.106" y="46.506" style="fill:#BDBDBD;" width="36.492" height="418.988"/>
	<rect x="140.692" y="46.506" style="fill:#BDBDBD;" width="36.492" height="418.988"/>
	<rect x="334.824" y="46.506" style="fill:#BDBDBD;" width="36.492" height="418.988"/>
	<rect x="443.403" y="46.506" style="fill:#BDBDBD;" width="36.492" height="418.988"/>
	<rect x="7.5" y="7.5" style="fill:#757575;" width="497" height="39.006"/>
	<rect x="7.5" y="465.494" style="fill:#757575;" width="497" height="39.006"/>
	<path style="fill:#EF5350;" d="M371.405,304.369h-0.09v161.125h47.381V351.66C418.696,325.542,397.523,304.369,371.405,304.369z"/>
	<path style="fill:#757575;" d="M371.405,304.369h-0.09v161.125h47.381V351.66C418.696,325.542,397.523,304.369,371.405,304.369z"/>
	<rect x="371.315" y="358.077" style="fill:#424242;" width="47.381" height="53.708"/>
	<path style="fill:#E0E0E0;" d="M309.633,304.369c0.051,29.664-23.981,53.727-53.633,53.727s-53.683-24.063-53.632-53.727h-25.184   v161.125h157.64V304.369H309.633z"/>
	<path style="fill:#757575;" d="M309.633,304.369c0.025,14.378-5.62,27.43-14.809,37.075v76.463   c0,15.236-12.351,27.587-27.587,27.587h-90.053v20h157.64V304.369H309.633z"/>
	<path style="fill:#FFCCBC;" d="M256,358.096c29.652,0,53.683-24.063,53.633-53.727h-6.728c-3.738,0-6.768-3.03-6.768-6.768v-27.26   c-14.071,9.625-29.609,15.137-40.136,15.137c-10.527,0-26.066-5.512-40.137-15.137v27.26c0,3.738-3.03,6.768-6.768,6.768h-6.728   C202.317,334.033,226.348,358.096,256,358.096z"/>
	<path style="fill:#FF8A65;" d="M283.518,68.102c14.48,15.46,22.773,36.706,21.082,59.664l-5.359,72.765   c-2.825,38.363-50.12,64.948-73.241,64.948c-6.349,0-14.522-2.009-23.096-5.712c16.467,16.06,39.166,25.712,53.096,25.712   c23.121,0,70.415-26.585,73.241-64.948l5.359-72.765C337.251,111.757,315.346,79.958,283.518,68.102z"/>
	<g>
		<path style="fill:#FFCCBC;" d="M224.085,275.418c-2.764-1.535-5.52-3.228-8.222-5.076v3.798    C218.791,274.832,221.561,275.271,224.085,275.418z"/>
		<path style="fill:#FF8A65;" d="M302.904,304.369c-3.738,0-6.768-3.03-6.768-6.768v-27.26c-10.04,6.868-20.819,11.627-30,13.798    v3.461c0,3.738,3.03,6.768,6.768,6.768l0,0c3.782,0,6.767,3.305,6.281,7.055c-3.413,26.332-25.924,46.671-53.185,46.671    c-0.406,0-0.807-0.022-1.211-0.031c8.794,6.306,19.564,10.031,31.211,10.031c29.652,0,53.683-24.063,53.633-53.727H302.904z"/>
	</g>
	<path style="fill:#EF5350;" d="M140.595,304.369c-26.118,0-47.291,21.173-47.291,47.291v113.834h47.388V304.369H140.595z"/>
	<path style="fill:#E0E0E0;" d="M140.595,304.369c-26.118,0-47.291,21.173-47.291,47.291v113.834h47.388V304.369H140.595z"/>
	<rect x="93.304" y="358.077" style="fill:#757575;" width="47.388" height="53.708"/>
	<rect x="177.183" y="358.077" style="fill:#757575;" width="157.64" height="53.708"/>
	<path style="fill:#424242;" d="M294.824,358.077v12.404c0,11.766-9.538,21.305-21.305,21.305h-96.336v20h157.64v-53.708H294.824z"/>
	<path d="M504.5,54.006c4.142,0,7.5-3.358,7.5-7.5V7.5c0-4.142-3.358-7.5-7.5-7.5H7.5C3.358,0,0,3.358,0,7.5v39.006   c0,4.142,3.358,7.5,7.5,7.5h17.106v403.988H7.5c-4.142,0-7.5,3.358-7.5,7.5V504.5c0,4.142,3.358,7.5,7.5,7.5h497   c4.142,0,7.5-3.358,7.5-7.5v-39.006c0-4.142-3.358-7.5-7.5-7.5h-17.106V54.006H504.5z M15,15h482v24.006h-69   c-4.142,0-7.5,3.358-7.5,7.5s3.358,7.5,7.5,7.5h7.902v403.988h-9.706V351.66c0-27.716-20.68-50.649-47.381-54.277V54.006H393   c4.142,0,7.5-3.358,7.5-7.5s-3.358-7.5-7.5-7.5H15V15z M184.683,457.994v-38.708h80.174c4.142,0,7.5-3.358,7.5-7.5   s-3.358-7.5-7.5-7.5h-80.174v-38.708c174.784,0.011,32.847,0.005,142.641,0v38.708h-27.467c-4.142,0-7.5,3.358-7.5,7.5   s3.358,7.5,7.5,7.5h27.467v38.708H184.683z M100.804,457.994v-38.708h32.388v38.708H100.804z M100.804,365.577h32.388v38.708   h-32.388V365.577z M133.192,350.577h-32.364c0.509-18.928,14.293-34.603,32.364-38.018V350.577z M148.192,238.714   c0-4.142-3.358-7.5-7.5-7.5s-7.5,3.358-7.5,7.5v58.668c-26.721,3.627-47.388,26.578-47.388,54.278v106.334h-9.706V54.006h57.094   v148.708c0,4.142,3.358,7.5,7.5,7.5s7.5-3.358,7.5-7.5V54.006h21.491v403.988h-21.491V238.714z M327.324,54.006v39.385   C310.822,69.113,283.59,55.665,256,55.665c-27.679,0-54.866,13.52-71.317,37.716V54.006H327.324z M223.352,337.056   c-6.943-6.955-11.384-15.735-12.897-25.256c7.232-0.687,12.909-6.79,12.909-14.199v-14.069c11.477,5.934,23.241,9.446,32.637,9.446   s21.159-3.512,32.637-9.446v14.069c0,7.409,5.677,13.512,12.909,14.199c-1.513,9.52-5.953,18.301-12.897,25.256   C270.89,354.845,241.605,355.341,223.352,337.056z M327.324,296.869h-23.687v-22.678c9.39-6.939,17.652-15.292,23.687-25.116   V296.869z M327.12,147.215l-5.358,72.765c-2.425,32.924-45.253,57.999-65.761,57.999s-63.336-25.074-65.761-57.999l-5.358-72.765   c-3.031-41.147,29.402-76.55,71.12-76.55C297.259,70.665,330.184,105.61,327.12,147.215z M208.363,274.191v22.678h-23.68v-47.783   C190.716,258.903,198.974,267.253,208.363,274.191z M184.683,311.869h10.644c1.744,14.527,8.639,28.308,20.562,38.708h-31.206   V311.869z M316.673,311.869h10.651v38.708h-31.212C308.028,340.181,314.928,326.403,316.673,311.869z M342.324,54.006h21.491   v403.988h-21.491V54.006z M411.169,350.577h-32.354v-38.006C396.6,315.929,410.648,331.34,411.169,350.577z M378.815,365.577   h32.381v38.708h-32.381V365.577z M378.815,419.286h32.381v38.708h-32.381V419.286z M39.606,54.006h21.492v403.988H39.606V54.006z    M497,497H15v-24.006h482V497z M472.394,457.994h-21.492V54.006h21.492V457.994z"/>
</g>















</svg>
