<svg height="511pt" viewBox="0 -62 511.99943 511" width="511pt" xmlns="http://www.w3.org/2000/svg"><path d="m203.773438 231.265625h-40.289063c-4.277344 0-7.742187-3.464844-7.742187-7.742187 0-4.273438 3.464843-7.742188 7.742187-7.742188h40.289063c20.382812 0 36.964843-16.582031 36.964843-36.960938v-21.589843c0-4.277344 3.464844-7.742188 7.742188-7.742188 4.273437 0 7.742187 3.464844 7.742187 7.742188v21.589843c-.003906 28.917969-23.527344 52.445313-52.449218 52.445313zm0 0" fill="#423e38"/><path d="m79.078125 388.367188h-37.832031c-11.597656 0-21-9.402344-21-21v-15.265626h79.832031v15.265626c0 11.597656-9.402344 21-21 21zm0 0" fill="#423e38"/><path d="m459.65625 32.003906h-377.0625c-7.980469 0-14.449219 6.472656-14.449219 14.453125v52.066407h405.960938v-52.066407c0-7.980469-6.46875-14.453125-14.449219-14.453125zm0 0" fill="#9dbdcb"/><g fill="#9e5015"><path d="m117.769531 106.195312c-4.273437 0-7.738281-3.46875-7.738281-7.742187v-20.113281c0-4.273438 3.464844-7.742188 7.738281-7.742188 4.277344 0 7.742188 3.46875 7.742188 7.742188v20.113281c0 4.273437-3.464844 7.742187-7.742188 7.742187zm0 0"/><path d="m148 106.195312c-4.277344 0-7.742188-3.46875-7.742188-7.742187v-20.113281c0-4.273438 3.464844-7.742188 7.742188-7.742188s7.742188 3.46875 7.742188 7.742188v20.113281c0 4.273437-3.464844 7.742187-7.742188 7.742187zm0 0"/><path d="m178.226562 106.195312c-4.273437 0-7.738281-3.46875-7.738281-7.742187v-20.113281c0-4.273438 3.464844-7.742188 7.738281-7.742188 4.277344 0 7.742188 3.46875 7.742188 7.742188v20.113281c0 4.273437-3.464844 7.742187-7.742188 7.742187zm0 0"/></g><path d="m37.242188 98.523438c-11.855469 0-21.464844 9.609374-21.464844 21.464843 0 7.34375 3.753906 14.179688 9.957031 18.121094l29.507813 18.738281c7.445312 4.730469 10.386718 14.148438 6.953124 22.277344l-59.851562 141.65625c-8.171875 19.34375 6.027344 40.761719 27.03125 40.761719h67.851562c11.789063 0 22.4375-7.058594 27.027344-17.921875l68.78125-162.792969c4.042969-9.566406 13.421875-15.785156 23.804688-15.785156h239.386718c9.875 0 17.882813-8.003907 17.882813-17.882813v-48.636718zm0 0" fill="#423e38"/><path d="m456.558594 98.523438v28.933593c0 9.878907-8.003906 17.882813-17.882813 17.882813h-239.382812c-10.386719 0-19.761719 6.21875-23.804688 15.785156l-68.78125 162.792969c-4.589843 10.863281-15.238281 17.921875-27.03125 17.921875-67.992187-.65625-69.648437 1.523437-78.660156-2.03125 3.292969 12.144531 14.304687 21.734375 28.355469 21.734375h67.851562c11.792969 0 22.441406-7.058594 27.03125-17.921875l68.78125-162.792969c4.042969-9.566406 13.417969-15.785156 23.804688-15.785156h239.382812c9.878906 0 17.882813-8.003907 17.882813-17.878907v-48.636718h-17.546875zm0 0" fill="#302e29"/><path d="m498.832031 127.425781h-24.726562v-62.160156h24.726562c7.273438 0 13.167969 5.894531 13.167969 13.167969v35.824218c0 7.273438-5.894531 13.167969-13.167969 13.167969zm0 0" fill="#86a1ad"/><path d="m135.414062 32.003906h-41.722656v-15.171875c0-9.019531 7.3125-16.332031 16.332032-16.332031h9.058593c9.019531 0 16.332031 7.3125 16.332031 16.332031zm0 0" fill="#423e38"/><path d="m40.707031 229.984375-31.03125 73.441406h131.5625l31.027344-73.441406zm0 0" fill="#9e5015"/><path d="m141.238281 303.425781 31.027344-73.441406h-25.871094l-31.03125 73.441406zm0 0" fill="#854312"/><path d="m459.65625 32.003906h-18.070312c7.980468 0 14.449218 6.472656 14.449218 14.453125v52.066407h18.074219v-52.066407c-.003906-7.980469-6.472656-14.453125-14.453125-14.453125zm0 0" fill="#86a1ad"/></svg>