<svg height="512" viewBox="0 0 512 512" width="512" xmlns="http://www.w3.org/2000/svg" xmlns:xlink="http://www.w3.org/1999/xlink"><linearGradient id="a" gradientUnits="userSpaceOnUse" x1="320" x2="320" y1="8" y2="504"><stop offset="0" stop-color="#eeccfe"/><stop offset="1" stop-color="#cf71fb"/></linearGradient><linearGradient id="b" gradientUnits="userSpaceOnUse" x1="200" x2="200" y1="280" y2="328"><stop offset="0" stop-color="#fedaa3"/><stop offset="1" stop-color="#fb9700"/></linearGradient><linearGradient id="c" gradientUnits="userSpaceOnUse" x1="200" x2="200" y1="312" y2="504"><stop offset=".0128" stop-color="#feecba"/><stop offset="1" stop-color="#fdc00a"/></linearGradient><linearGradient id="d" gradientUnits="userSpaceOnUse" x1="200" x2="200" y1="344" y2="472"><stop offset="0" stop-color="#feecba"/><stop offset="1" stop-color="#fed96c"/></linearGradient><path d="m432 448h48v16h-48zm0 0"/><path d="m136 8h368v496h-368zm0 0" fill="url(#a)"/><g fill="#f1d5fe"><path d="m192 224h64v80h-64zm0 0"/><path d="m384 224h64v168h-64zm0 0"/><path d="m288 200h64v104h-64zm0 0"/></g><path d="m8 280h384v48h-384zm0 0" fill="url(#b)"/><path d="m8 312h384v192h-384zm0 0" fill="url(#c)"/><path d="m344 360v-16h-288v16l-16 16v64l16 16v16h288v-16l16-16v-64zm0 0" fill="url(#d)"/><path d="m360 256h-16v-48h-48v48h-16v-56c0-4.414062 3.574219-8 8-8h64c4.425781 0 8 3.585938 8 8zm0 0"/><path d="m448 400h-32v-16h24v-152h-48v24h-16v-32c0-4.414062 3.574219-8 8-8h64c4.425781 0 8 3.585938 8 8v168c0 4.414062-3.574219 8-8 8zm0 0"/><path d="m264 256h-16v-24h-48v24h-16v-32c0-4.414062 3.574219-8 8-8h64c4.425781 0 8 3.585938 8 8zm0 0"/><path d="m176 152h288v16h-288zm0 0"/><path d="m432 56v-8h-16v5.335938l-16 21.335937-16-21.335937v-5.335938h-16v8c0 1.726562.558594 3.414062 1.601562 4.800781l20.398438 27.199219-20.398438 27.199219c-1.042968 1.386719-1.601562 3.074219-1.601562 4.800781v8h16v-5.335938l16-21.335937 16 21.335937v5.335938h16v-8c0-1.726562-.558594-3.414062-1.601562-4.800781l-20.398438-27.199219 20.398438-27.199219c1.042968-1.386719 1.601562-3.074219 1.601562-4.800781zm0 0"/><path d="m319.222656 50.761719c-1.328125-2.792969-4.144531-4.5625-7.222656-4.5625s-5.894531 1.777343-7.222656 4.5625l-32 67.207031c-.511719 1.070312-.777344 2.246094-.777344 3.4375v6.59375h16v-4.785156l5.335938-11.214844h37.320312l5.34375 11.214844v4.785156h16v-6.59375c0-1.191406-.265625-2.359375-.777344-3.4375zm-18.261718 45.238281 11.039062-23.191406 11.039062 23.191406zm0 0"/><path d="m200 64h24v64h16v-64h24v-16h-64zm0 0"/><path d="m400 296h-16v-8h-368v8h-16v-16c0-4.414062 3.574219-8 8-8h384c4.425781 0 8 3.585938 8 8zm0 0"/><path d="m504 512h-88v-16h80v-480h-352v240h-16v-248c0-4.414062 3.574219-8 8-8h368c4.425781 0 8 3.585938 8 8v496c0 4.414062-3.574219 8-8 8zm0 0"/><path d="m248 408c0 26.507812-21.492188 48-48 48s-48-21.492188-48-48 21.492188-48 48-48 48 21.492188 48 48zm0 0" fill="#fff2ce"/><path d="m200 464c-30.871094 0-56-25.121094-56-56s25.128906-56 56-56 56 25.121094 56 56-25.128906 56-56 56zm0-96c-22.054688 0-40 17.945312-40 40s17.945312 40 40 40 40-17.945312 40-40-17.945312-40-40-40zm0 0"/><path d="m168 480h-112c-4.425781 0-8-3.585938-8-8v-12.6875l-13.65625-13.65625c-1.503906-1.496094-2.34375-3.535156-2.34375-5.65625v-64c0-2.121094.839844-4.160156 2.34375-5.65625l13.65625-13.65625v-12.6875c0-4.414062 3.574219-8 8-8h112v16h-104v8c0 2.121094-.839844 4.160156-2.34375 5.65625l-13.65625 13.65625v57.375l13.65625 13.65625c1.503906 1.496094 2.34375 3.535156 2.34375 5.65625v8h104zm0 0"/><path d="m240 336h64v16h-64zm0 0"/><path d="m344 480h-104v-16h96v-8c0-2.121094.839844-4.160156 2.34375-5.65625l13.65625-13.65625v-57.375l-13.65625-13.65625c-1.503906-1.496094-2.34375-3.535156-2.34375-5.65625v-8h-16v-16h24c4.425781 0 8 3.585938 8 8v12.6875l13.65625 13.65625c1.503906 1.496094 2.34375 3.535156 2.34375 5.65625v64c0 2.121094-.839844 4.160156-2.34375 5.65625l-13.65625 13.65625v12.6875c0 4.414062-3.574219 8-8 8zm0 0"/><path d="m392 512h-384c-4.425781 0-8-3.585938-8-8v-192c0-4.414062 3.574219-8 8-8h384c4.425781 0 8 3.585938 8 8v192c0 4.414062-3.574219 8-8 8zm-376-16h368v-176h-368zm0 0"/></svg>