<svg height="512" viewBox="0 0 64 64" width="512" xmlns="http://www.w3.org/2000/svg"><path d="m62 28.48v8.03l-3.97.35-.7-7.97z" fill="#e6e7e8"/><path d="m62 36.51v16.07l-2.58.22-1.39-15.94z" fill="#ff5023"/><path d="m51.45 53.5a6 6 0 1 1 -6.5-5.45 6 6 0 0 1 6.5 5.45z" fill="#787680"/><path d="m40.14 31.9-.9 5.41a1 1 0 0 0 1.08 1.1l17.71-1.55 1.39 15.94-5.98.53-1.99.17a6 6 0 0 0 -11.95 1.05l-1.99.17-1.99.17a2 2 0 0 1 -2.17-1.81l-.18-2-.23-2.64 4.06-2.44-2-2 2-2-4.16-2.08a19.776 19.776 0 0 1 .53-1.97l3.76-9.13a3.994 3.994 0 0 1 3.35-2.47l20.61-1.8a3.078 3.078 0 0 1 .91.04v3.89l-4.67.41-15.39 1.35a2 2 0 0 0 -1.8 1.66z" fill="#ff6243"/><path d="m57.33 28.89.7 7.97-17.71 1.55a1 1 0 0 1 -1.08-1.1l.9-5.41a2 2 0 0 1 1.8-1.66z" fill="#d1d3d4"/><path d="m37 42-2 2 2 2-4.06 2.44-.35-3.98a16.447 16.447 0 0 1 .25-4.54z" fill="#ff9811"/><path d="m31.04 43.8a5.737 5.737 0 0 1 .07 2.03l-.28 1.98-4.95-.7a1 1 0 0 1 -.85-1.13l.28-1.98a.99.99 0 0 1 1.13-.85z" fill="#e6e7e8"/><path d="m18.67 48.12a6 6 0 1 1 -6.78 5.1 6 6 0 0 1 6.78-5.1z" fill="#787680"/><path d="m25.88 47.11 4.95.7-.83 5.94a2.011 2.011 0 0 1 -2.26 1.7l-1.98-.28-1.98-.28a6 6 0 0 0 -11.89-1.67l-1.98-.28-5.94-.83 2.23-15.85 15.84 2.23 3.96.56a5.989 5.989 0 0 1 5.04 4.75l-4.6-.65a.99.99 0 0 0 -1.13.85l-.28 1.98a1 1 0 0 0 .85 1.13z" fill="#5aaae7"/><path d="m21.96 38.36.08.13-15.84-2.23 1.11-7.92 8.78 1.24.31-.19z" fill="#e6e7e8"/><path d="m7.31 28.34-1.11 7.92-4.2-.59v-8.08z" fill="#d1d3d4"/><path d="m2 35.67 4.2.59-2.23 15.85-1.97-.28z" fill="#3d9ae2"/><path d="m16.4 29.39-.31.19-8.78-1.24-5.31-.75v-4.03l9.95 1.4a3.991 3.991 0 0 1 2.85 1.85z" fill="#3d9ae2"/><path d="m19 26-3-3h5v-5l5 5 5-5v5h6l-4 4h-13z" fill="#ff9811"/><path d="m25.76 55.17-1.98-.28a6 6 0 0 0 -11.89-1.67l-1.98-.28a8.028 8.028 0 0 1 7.92-6.88 8.436 8.436 0 0 1 1.12.08 8 8 0 0 1 6.81 9.03z" fill="#3d9ae2"/><path d="m53.44 53.33-1.99.17a6 6 0 0 0 -11.95 1.05l-1.99.17a7.97 7.97 0 0 1 7.27-8.66c.23-.02.47-.03.7-.03a8.018 8.018 0 0 1 7.96 7.3z" fill="#ff5023"/><path d="m9.593 38.923h2v4h-2z" transform="matrix(.139 -.99 .99 .139 -31.406 45.712)"/><path d="m16.835 53.059h2v2h-2z" transform="matrix(.139 -.99 .99 .139 -38.18 64.197)"/><path d="m62.087 29.481-.174-1.992-20.061 1.756a3 3 0 0 0 -2.7 2.493l-.91 5.462a2 2 0 0 0 1.986 2.22 1.74 1.74 0 0 0 .176-.008l16.716-1.465 1.221 13.947-6.056.53a6.991 6.991 0 0 0 -13.79 1.206l-3.067.268a.982.982 0 0 1 -.728-.231.994.994 0 0 1 -.355-.678l-.087-1 2.988-.262-.175-1.992-2.988.265-.09-1.028 3.522-2.116a1 1 0 0 0 .192-1.564l-1.293-1.292 1.293-1.293a1 1 0 0 0 -.26-1.6l-3.447-1.724c.09-.353.178-.707.293-1.052l3.762-9.131a2.989 2.989 0 0 1 2.513-1.847l20.613-1.8a3.142 3.142 0 0 1 .679.018l.28-1.98a5.1 5.1 0 0 0 -1.133-.03l-20.614 1.8a4.983 4.983 0 0 0 -4.188 3.079l-3.781 9.2a16.9 16.9 0 0 0 -.849 4.552 7.08 7.08 0 0 0 -.816-1.405 6.957 6.957 0 0 0 -4.616-2.719l-1.593-.224 5.323-3.548 1.42 1.42 1.414-1.414-2-2a1 1 0 0 0 -1.262-.125l-7.18 4.786-6.618-10.681a4.994 4.994 0 0 0 -3.553-2.316l-9.955-1.4-.278 1.981 9.954 1.4a2.994 2.994 0 0 1 2.133 1.389l.632 1.019-12.441-1.748-.278 1.98 4.321.608-.835 5.941-3.208-.45-.278 1.98 3.208.451-1.949 13.864-.981-.138-.278 1.98 8.981 1.262a7 7 0 0 0 7 6.974 7.012 7.012 0 0 0 6.711-5.047l3.049.428a3.019 3.019 0 0 0 .423.03 3 3 0 0 0 2.965-2.583l.88-6.267.486 5.543a3.006 3.006 0 0 0 2.982 2.737c.088 0 .176 0 .264-.011l3.068-.269a7.008 7.008 0 0 0 6.8 5.4q.306 0 .615-.027a6.986 6.986 0 0 0 6.372-6.58l9.628-.843-.174-1.992-1.58.138-1.22-13.947 2.974-.26-.174-1.992-2.974.268-.522-5.985zm-31.967 16.206-.14.99-3.96-.557.278-1.98 3.861.542a5.063 5.063 0 0 1 -.039 1.005zm-21.957-16.214 7.783 1.094v-.006l4.121 6.644-12.74-1.79zm14.624 25.281a5 5 0 0 1 -8.945 2.313 5 5 0 0 1 3.983-8.009 5.1 5.1 0 0 1 .706.049 5.007 5.007 0 0 1 4.256 5.647zm5.09-.294-3.05-.429a6.993 6.993 0 0 0 -11.2-5.563 6.934 6.934 0 0 0 -2.5 3.637l-6.027-.846 1.949-13.859 14.851 2.083 3.961.557a4.726 4.726 0 0 1 3.659 2.533l-2.947-.414a2 2 0 0 0 -2.259 1.7l-.278 1.98a2 2 0 0 0 1.7 2.26l3.961.556-.278 1.981-2.971-.417-.278 1.98 2.971.418-.14.99a1 1 0 0 1 -1.124.853zm7.435-12.186-1.019 1.019a1 1 0 0 0 0 1.414l1.095 1.093-1.589.955-.209-2.388a15.16 15.16 0 0 1 .035-2.938zm15.146 11.313a5 5 0 1 1 -5.416-4.545c.148-.013.3-.02.444-.02a5 5 0 0 1 4.972 4.565zm6.489-17.62-16.725 1.505.905-5.4a1 1 0 0 1 .9-.831l14.4-1.26z"/><path d="m41.435 41.156h4v2h-4z" transform="matrix(.996 -.087 .087 .996 -3.509 3.946)"/><path d="m44.477 53.023h2v2h-2z" transform="matrix(.996 -.087 .087 .996 -4.548 4.182)"/><path d="m18.293 26.707 1.414-1.414-1.293-1.293h2.586a1 1 0 0 0 1-1v-2.586l3.293 3.293a1 1 0 0 0 1.414 0l3.293-3.293v2.586a1 1 0 0 0 1 1h3.586l-2.293 2.293 1.414 1.414 4-4a1 1 0 0 0 -.707-1.707h-5v-4a1 1 0 0 0 -1.707-.707l-4.293 4.293-4.293-4.293a1 1 0 0 0 -1.707.707v4h-4a1 1 0 0 0 -.707 1.707z"/><path d="m24.3 16h2a1.36 1.36 0 0 1 .465-1.021 3.322 3.322 0 0 0 0-4.62 1.358 1.358 0 0 1 0-2.048 3.29 3.29 0 0 0 .935-2.311h-2a1.362 1.362 0 0 1 -.466 1.024 3.326 3.326 0 0 0 0 4.622 1.356 1.356 0 0 1 0 2.045 3.28 3.28 0 0 0 -.934 2.309z"/><path d="m30.3 14h2a1.36 1.36 0 0 1 .465-1.021 3.322 3.322 0 0 0 0-4.62 1.358 1.358 0 0 1 0-2.048 3.29 3.29 0 0 0 .935-2.311h-2a1.362 1.362 0 0 1 -.466 1.024 3.326 3.326 0 0 0 0 4.622 1.356 1.356 0 0 1 0 2.045 3.28 3.28 0 0 0 -.934 2.309z"/></svg>