<svg id="_x33_0" enable-background="new 0 0 64 64" height="512" viewBox="0 0 64 64" width="512" xmlns="http://www.w3.org/2000/svg"><path d="m2 20v34c0 2.21 1.79 4 4 4l46-.02v-37.98z" fill="#e6e9ed"/><path d="m50 8h-46c-1.1 0-2 .9-2 2v10h50v-10c0-1.1-.9-2-2-2z" fill="#5cd6b3"/><g fill="#ccd1d9"><path d="m30 8v5c0 .55-.45 1-1 1h-4c-.55 0-1-.45-1-1v-5-5c0-.55.45-1 1-1h4c.55 0 1 .45 1 1z"/><path d="m18 8v5c0 .55-.45 1-1 1h-4c-.55 0-1-.45-1-1v-5-5c0-.55.45-1 1-1h4c.55 0 1 .45 1 1z"/><path d="m42 8v5c0 .55-.45 1-1 1h-4c-.55 0-1-.45-1-1v-5-5c0-.55.45-1 1-1h4c.55 0 1 .45 1 1z"/></g><path d="m47 24h-40c-.55 0-1 .45-1 1v28c0 .55.45 1 1 1h41v-29c0-.55-.45-1-1-1z" fill="#f0d0b4"/><path d="m38.69 54c-.45-1.25-.69-2.6-.69-4 0-5.96 4.34-10.9 10.03-11.84.64-.11 1.3-.16 1.97-.16s1.33.05 1.97.16c5.69.94 10.03 5.88 10.03 11.84 0 6.63-5.37 12-12 12-3.57 0-6.77-1.55-8.97-4.02-1.02-1.15-1.83-2.49-2.34-3.98z" fill="#fcd770"/><path d="m53 43h-2v-2h-2v2h-2c-1.103 0-2 .897-2 2v4c0 1.103.897 2 2 2h6v4h-6v-2h-2v2c0 1.103.897 2 2 2h2v2h2v-2h2c1.103 0 2-.897 2-2v-4c0-1.103-.897-2-2-2h-6v-4h6v2h2v-2c0-1.103-.897-2-2-2z"/><path d="m53 37.363v-27.363c0-1.654-1.346-3-3-3h-7v-4c0-1.103-.897-2-2-2h-4c-1.103 0-2 .897-2 2v4h-4v-4c0-1.103-.897-2-2-2h-4c-1.103 0-2 .897-2 2v4h-4v-4c0-1.103-.897-2-2-2h-4c-1.103 0-2 .897-2 2v4h-7c-1.654 0-3 1.346-3 3v44c0 2.757 2.243 5 5 5h34.641c2.367 2.46 5.684 4 9.359 4 7.168 0 13-5.832 13-13 0-6.134-4.276-11.277-10-12.637zm-16-34.363h4l.001 10h-4.001zm-12 0h4l.001 10h-4.001zm-12 0h4l.001 10h-4.001zm-9 6h7v4c0 1.103.897 2 2 2h4c1.103 0 2-.897 2-2v-4h4v4c0 1.103.897 2 2 2h4c1.103 0 2-.897 2-2v-4h4v4c0 1.103.897 2 2 2h4c1.103 0 2-.897 2-2v-4h7c.552 0 1 .449 1 1v9h-48v-9c0-.551.448-1 1-1zm2 48c-1.654 0-3-1.346-3-3v-33h48v16.051c-.331-.026-.662-.051-1-.051s-.669.025-1 .051v-12.051c0-1.103-.897-2-2-2h-40c-1.103 0-2 .897-2 2v28c0 1.103.897 2 2 2h31.003c.293.702.654 1.367 1.06 2zm34.153-15.463-1.903-2.537 2.75-3.667v-2.333h-2v1.667l-2 2.667-2-2.667v-1.667h-2v2.333l2.75 3.667-2.75 3.667v2.333h2v-1.667l2-2.667 1.923 2.564c-1.212 1.975-1.923 4.288-1.923 6.77 0 1.034.134 2.035.363 3h-30.363v-28h40v12.363c-2.708.644-5.088 2.13-6.847 4.174zm9.847 19.463c-6.065 0-11-4.935-11-11s4.935-11 11-11 11 4.935 11 11-4.935 11-11 11z"/><path d="m25.219 33-2.188 8.757-.031 3.243h2v-2h4v2h2v-3l-2.219-9zm2 2 1.5 6h-3.438l1.5-6z"/><path d="m23 35v-2h-10v2h4v10h2v-10z"/></svg>