<?xml version="1.0" encoding="iso-8859-1"?>
<!-- Generator: Adobe Illustrator 19.0.0, SVG Export Plug-In . SVG Version: 6.00 Build 0)  -->
<svg version="1.1" id="Capa_1" xmlns="http://www.w3.org/2000/svg" xmlns:xlink="http://www.w3.org/1999/xlink" x="0px" y="0px"
	 viewBox="0 0 496 496" style="enable-background:new 0 0 496 496;" xml:space="preserve">
<rect x="8" y="104" style="fill:#EABD8C;" width="384" height="384"/>
<rect x="392" y="104" style="fill:#D3A06C;" width="96" height="384"/>
<g>
	<rect x="392" y="104" style="fill:#B27946;" width="16" height="384"/>
	<polygon style="fill:#B27946;" points="488,465.376 440,417.376 392,465.376 392,488 488,488 	"/>
</g>
<polygon style="fill:#D3A06C;" points="392,488 440,440 488,488 "/>
<path d="M432,96V40c0-22.056-17.944-40-40-40h-96h-80h-96C97.944,0,80,17.944,80,40v56H0v400h496V96H432z M480,468.688l-32-32V160
	h-16v276.688l-32,32V112h80V468.688z M440,451.312L468.688,480h-57.376L440,451.312z M416,40v56h-80V40
	c0-9.04-3.128-17.296-8.208-24H392C405.232,16,416,26.768,416,40z M296,16c13.232,0,24,10.768,24,24v56H192V40
	c0-13.232,10.768-24,24-24H296z M96,40c0-13.232,10.768-24,24-24h64.208C179.128,22.704,176,30.96,176,40v56H96V40z M16,112h64
	v33.472c-9.288,3.312-16,12.112-16,22.528c0,13.232,10.768,24,24,24s24-10.768,24-24c0-10.416-6.712-19.216-16-22.528V112h224
	v33.472c-9.288,3.312-16,12.112-16,22.528c0,13.232,10.768,24,24,24s24-10.768,24-24c0-10.416-6.712-19.216-16-22.528V112h48v368H16
	V112z M96,168c0,4.408-3.584,8-8,8s-8-3.592-8-8s3.584-8,8-8S96,163.592,96,168z M336,168c0,4.408-3.584,8-8,8s-8-3.592-8-8
	s3.584-8,8-8S336,163.592,336,168z"/>
<rect x="432" y="128" width="16" height="16"/>
<path d="M80,296h16c4.416,0,8,3.584,8,8h16c0-13.232-10.768-24-24-24H80c-13.232,0-24,10.768-24,24s10.768,24,24,24h16
	c4.416,0,8,3.584,8,8s-3.584,8-8,8H80c-4.416,0-8-3.584-8-8H56c0,13.232,10.768,24,24,24h16c13.232,0,24-10.768,24-24
	s-10.768-24-24-24H80c-4.416,0-8-3.584-8-8S75.584,296,80,296z"/>
<path d="M168,280c-17.648,0-32,14.352-32,32v48h16v-24h32v24h16v-48C200,294.352,185.648,280,168,280z M152,320v-8
	c0-8.824,7.176-16,16-16s16,7.176,16,16v8H152z"/>
<polygon points="232,280 216,280 216,360 264,360 264,344 232,344 "/>
<polygon points="288,360 336,360 336,344 304,344 304,328 320,328 320,312 304,312 304,296 336,296 336,280 288,280 "/>
<g>
</g>
<g>
</g>
<g>
</g>
<g>
</g>
<g>
</g>
<g>
</g>
<g>
</g>
<g>
</g>
<g>
</g>
<g>
</g>
<g>
</g>
<g>
</g>
<g>
</g>
<g>
</g>
<g>
</g>
</svg>
