<svg height="496pt" viewBox="-48 0 496 496" width="496pt" xmlns="http://www.w3.org/2000/svg"><path d="m40 424h304v64h-304c-17.671875 0-32-14.328125-32-32s14.328125-32 32-32zm0 0" fill="#efedee"/><path d="m344 424h-304c-17.671875 0-32 14.328125-32 32h336zm0 0" fill="#d9d7d8"/><path d="m8 456v-448h352v416h-320c-17.671875 0-32 14.328125-32 32zm0 0" fill="#bc8f6f"/><path d="m40 424h280v-416h-312v448c0-17.671875 14.328125-32 32-32zm0 0" fill="#cb9e78"/><path d="m360 392h32v-64h-32" fill="#ca5057"/><path d="m360 296h32v-64h-32" fill="#599072"/><path d="m360 200h32v-64h-32" fill="#eebc5a"/><path d="m328 184c0 79.527344-64.472656 144-144 144s-144-64.472656-144-144 64.472656-144 144-144 144 64.472656 144 144zm0 0" fill="#d9d7d8"/><path d="m304 184c0-79.191406-59.097656-143.390625-132-143.390625s-132 64.199219-132 143.390625 59.097656 143.390625 132 143.390625 132-64.199219 132-143.390625zm0 0" fill="#efedee"/><path d="m184 80h-16c-35.34375 0-64 28.65625-64 64v80c0 35.34375 28.65625 64 64 64h16v-64h-32v-80h32zm0 0" fill="#cb9e78"/><path d="m160 224h24v64h-24zm0 0" fill="#bc8f6f"/><path d="m160 80h24v64h-24zm0 0" fill="#bc8f6f"/><path d="m368 496h-328c-22.054688 0-40-17.945312-40-40v-448c0-4.425781 3.585938-8 8-8h352c4.414062 0 8 3.574219 8 8v416c0 4.425781-3.585938 8-8 8h-320c-13.230469 0-24 10.769531-24 24s10.769531 24 24 24h328zm-352-480v408.015625c6.6875-5.03125 15-8.015625 24-8.015625h312v-400zm0 0"/><path d="m336 424h16v64h-16zm0 0"/><path d="m392 400h-32v-16h24v-48h-24v-16h32c4.414062 0 8 3.574219 8 8v64c0 4.425781-3.585938 8-8 8zm0 0"/><path d="m392 304h-32v-16h24v-48h-24v-16h32c4.414062 0 8 3.574219 8 8v64c0 4.425781-3.585938 8-8 8zm0 0"/><path d="m392 208h-32v-16h24v-48h-24v-16h32c4.414062 0 8 3.574219 8 8v64c0 4.425781-3.585938 8-8 8zm0 0"/><path d="m184 336c-83.816406 0-152-68.183594-152-152s68.183594-152 152-152 152 68.183594 152 152-68.183594 152-152 152zm0-288c-74.992188 0-136 61.007812-136 136s61.007812 136 136 136 136-61.007812 136-136-61.007812-136-136-136zm0 0"/><path d="m184 296h-16c-39.695312 0-72-32.296875-72-72v-80c0-39.703125 32.304688-72 72-72h16c4.414062 0 8 3.574219 8 8v64c0 4.425781-3.585938 8-8 8h-24v64h24c4.414062 0 8 3.574219 8 8v64c0 4.425781-3.585938 8-8 8zm-16-208c-30.878906 0-56 25.128906-56 56v80c0 30.871094 25.121094 56 56 56h8v-48h-24c-4.414062 0-8-3.574219-8-8v-80c0-4.425781 3.585938-8 8-8h24v-48zm0 0"/><path d="m232 192h-16c0-4.414062-3.59375-8-8-8v-16c13.230469 0 24 10.769531 24 24zm0 0"/><path d="m264 192h-16c0-22.054688-17.945312-40-40-40v-16c30.878906 0 56 25.128906 56 56zm0 0"/><path d="m296 192h-16c0-39.703125-32.304688-72-72-72v-16c48.519531 0 88 39.480469 88 88zm0 0"/></svg>