<svg id="Capa_1" enable-background="new 0 0 512.076 512.076" height="512" viewBox="0 0 512.076 512.076" width="512" xmlns="http://www.w3.org/2000/svg"><g><g><path d="m142.85 283.464c12.188-4.436 32.754 21.325 37.19 33.513s-5.067 16.819-17.255 21.255-22.445 6.997-26.881-5.191c-4.437-12.187-5.242-45.141 6.946-49.577z" fill="#8dc637"/><path d="m15.896 214.381c-22.919-62.968 3.426-115.82 53.077-133.891s103.805 5.481 126.723 68.449 5.922 141.506-43.729 159.577-113.153-31.167-136.071-94.135z" fill="#a3e440"/><path d="m195.697 148.94c22.917 62.965 5.921 141.503-43.729 159.575-5.856 2.132-11.908 3.326-18.056 3.673 36.91-27.581 47.753-95.241 27.537-150.782-20.215-55.541-64.727-80.413-109.025-73.104 5.159-3.061 10.694-5.676 16.55-7.808 49.651-18.072 103.803 5.473 126.723 68.446z" fill="#99d53b"/></g><g><path d="m369.226 283.464c12.188 4.436 11.383 37.39 6.947 49.578s-14.693 9.627-26.881 5.191-21.692-9.067-17.255-21.255c4.436-12.188 25.001-37.95 37.189-33.514z" fill="#f8c52d"/><path d="m316.379 148.939c22.918-62.968 77.073-86.521 126.723-68.449s75.996 70.924 53.077 133.891c-22.918 62.968-86.422 112.206-136.072 94.135s-66.646-96.609-43.728-159.577z" fill="#fee265"/><path d="m496.18 214.383c-22.917 62.965-86.421 112.204-136.071 94.133-5.856-2.132-11.26-5.107-16.192-8.793 46.004 2.597 97.8-42.264 118.016-97.805s2.105-103.206-36.528-126.081c5.92.972 11.841 2.526 17.697 4.657 49.65 18.071 75.998 70.915 53.078 133.889z" fill="#fdd330"/></g><g><path d="m254.506 250.525c12.97 0 23.485 31.242 23.485 44.212s-10.514 14.072-23.485 14.072-23.485-1.102-23.485-14.072c.001-12.971 10.515-44.212 23.485-44.212z" fill="#e22334"/><path d="m158.836 142.187c0-67.009 42.833-107.663 95.67-107.663s95.67 40.654 95.67 107.663-42.833 134.997-95.67 134.997-95.67-67.988-95.67-134.997z" fill="#fb4a59"/><path d="m350.176 142.188c0 67.005-42.833 134.995-95.67 134.995-6.232 0-12.328-.948-18.223-2.724 44.118-13.294 77.447-73.165 77.447-132.271s-33.32-97.702-77.447-105.984c5.895-1.112 11.991-1.677 18.223-1.677 52.838.001 95.67 40.647 95.67 107.661z" fill="#f82f40"/><path d="m503.757 127.664c-10.734-25.238-31.364-44.495-58.089-54.222-34.291-12.48-70.188-6.315-97.836 16.329-3.788-9.111-8.635-17.5-14.512-25.012-15.338-19.604-36.505-32.15-61.214-36.284-4.083-.686-7.951 2.074-8.635 6.159s2.074 7.952 6.159 8.635c44.374 7.425 73.046 46.252 73.046 98.918 0 13.099-1.707 26.423-5.072 39.603-1.025 4.014 1.397 8.098 5.411 9.123.623.159 1.247.235 1.861.235 3.346 0 6.396-2.255 7.261-5.646 3.675-14.392 5.539-28.965 5.539-43.315 0-13.089-1.58-25.517-4.652-37.059 24.031-22.268 56.543-28.862 87.514-17.59 22.776 8.29 40.326 24.625 49.415 45.997 9.755 22.936 9.471 50.005-.821 78.282-10.704 29.408-30.874 56.355-55.339 73.931-24.789 17.809-50.045 23.393-71.12 15.721-19.391-7.057-34.465-25.294-42.583-51.435 7.547-9.014 14.339-19.614 20.114-31.625 1.795-3.733.224-8.214-3.51-10.009-3.733-1.795-8.214-.224-10.009 3.51-17.393 36.176-44.375 57.774-72.178 57.774-22.426 0-44.25-13.885-61.454-39.098-16.979-24.883-26.716-57.104-26.716-88.399 0-52.215 28.333-90.985 72.183-98.771 4.079-.725 6.797-4.618 6.074-8.696-.724-4.078-4.614-6.794-8.696-6.074-24.459 4.343-45.388 16.971-60.522 36.52-5.343 6.901-9.807 14.547-13.403 22.794-27.293-21.09-62.439-26.574-95.563-14.519-26.725 9.727-47.355 28.983-58.089 54.222-11.269 26.497-11.086 57.37.528 89.283 7.418 20.381 19.133 39.953 33.877 56.6 1.482 1.673 3.544 2.527 5.617 2.527 1.768 0 3.542-.621 4.97-1.886 3.101-2.746 3.388-7.486.642-10.587-13.506-15.25-24.229-33.157-31.01-51.785-20.17-55.418-.188-106.524 48.595-124.279 30.196-10.99 61.085-5.36 85.072 15.405-3.471 12.159-5.274 25.326-5.274 39.244 0 34.238 10.689 69.54 29.326 96.854 3.337 4.891 6.848 9.408 10.502 13.555-8.295 24.758-23.055 42.063-41.762 48.872-21.278 7.746-46.767 1.994-71.767-16.196-3.35-2.438-8.04-1.696-10.477 1.652-2.437 3.349-1.698 8.04 1.652 10.477 18.963 13.798 38.464 21.342 56.969 22.324.524 6.188 1.596 11.824 3.072 15.886 3.874 10.637 11.414 13.346 17.056 13.746.544.039 1.093.057 1.646.057 3.686 0 7.53-.819 11.245-1.923-1.73 2.663-4.312 5.805-6.732 8.745-8.076 9.81-18.128 22.019-20 39.073-.967 8.806-.212 15.757 1.548 21.239-.989 1.99-1.825 4.119-2.497 6.375-4.933 16.566-1.309 36.809 10.204 56.998 1.383 2.426 3.916 3.786 6.522 3.786 1.259 0 2.536-.318 3.708-.986 3.598-2.052 4.852-6.632 2.8-10.23-5.004-8.776-12.474-25.097-9.885-40.813 3.795 2.675 7.65 4.006 10.343 4.661 12.08 2.935 28.865-.764 32.396-9.936 2.534-6.582 1.363-13.437-3.212-18.807-6.225-7.306-17.665-10.682-28.473-8.399-3.187.673-6.164 1.799-8.885 3.334.011-1.749.125-3.611.341-5.586 1.384-12.609 9.505-22.473 16.67-31.175 6.509-7.906 13.197-16.038 12.112-24.928 8.501-4.575 16.464-12.329 11.329-26.429-1.488-4.092-4.3-9.119-7.886-14.196 9.806-9.193 17.848-21.384 23.683-36.037 7.341 6.256 15.115 11.142 23.179 14.574-1.627 5.997-2.546 11.654-2.546 15.981 0 16.988 12.981 20.595 23.411 21.361 9.433 24.858 12.097 51.78 7.673 77.956-.794 4.695-2.01 10.187-4.528 14.51-.458-6.288-1.662-12.64-5.518-18.299-3.321-4.875-8.743-8.385-14.503-9.391-4.871-.849-9.617.177-13.364 2.893-3.901 2.827-6.646 7.438-7.729 12.984-2.296 11.768 3.572 24.663 13.954 30.661 3.837 2.217 8.181 3.429 12.591 3.679-.105 9.904-.576 19.825-1.408 29.656-.35 4.127 2.713 7.757 6.84 8.106.215.019.429.027.641.027 3.855 0 7.134-2.956 7.465-6.868.952-11.24 1.447-22.597 1.483-33.915 2.127-1.042 4.124-2.348 5.92-3.911 8.598-7.475 11.435-18.694 12.946-27.633 4.558-26.968 2.278-54.653-6.546-80.519 10.286-.888 22.642-4.722 22.642-21.299 0-4.337-.923-10.008-2.556-16.02 8.936-3.808 17.504-9.378 25.478-16.537 5.887 15.56 14.199 28.443 24.453 38.05-3.581 5.075-6.384 10.087-7.871 14.179-6.232 17.109 6.815 24.881 16.716 28.96-.412 19.285-1.414 36.721-7.614 52.505-7.289-3.377-15.643-4.696-24.658-3.833-4.923.47-16.934 2.479-22.116 10.957-1.871 3.062-3.542 8.121-.873 14.837 5.346 13.457 21.91 14.39 34.47 11.101 6.989-1.831 12.813-5.418 17.584-10.867 5.79 6.899 9.461 15.634 13.304 24.775 3.197 7.606 6.502 15.471 11.223 22.654 1.441 2.192 3.834 3.382 6.274 3.382 1.414 0 2.843-.399 4.112-1.233 3.461-2.275 4.423-6.925 2.148-10.387-3.963-6.029-6.861-12.926-9.93-20.228-4.755-11.313-9.656-22.976-18.995-32.267 7.734-17.614 9.382-36.707 9.948-56.399 2.658.628 5.337 1.049 7.938 1.049.552 0 1.102-.018 1.646-.057 5.643-.399 13.182-3.108 17.058-13.75 1.483-4.079 2.562-9.703 3.08-15.89 18.265-.975 37.512-8.335 56.238-21.787 26.855-19.292 48.973-48.81 60.684-80.983 11.613-31.908 11.796-62.781.527-89.278zm-345.137 286.208c6.063-1.28 11.716.823 13.956 3.451.798.937 1.079 1.775.891 2.8-2.684 1.631-11.76 3.879-18.679.335-1.404-.719-2.627-1.649-3.67-2.789 2.461-2.234 5.177-3.306 7.502-3.797zm14.371-94.331c1.402 3.849 2.248 6.172-12.77 11.646-15.026 5.473-15.872 3.144-17.274-.704-.975-2.684-1.755-6.853-2.179-11.451 4.695-.698 9.295-1.841 13.764-3.468 4.454-1.621 8.716-3.696 12.767-6.199 3.01 4.333 4.892 7.975 5.692 10.176zm57.428 94.88c-4.931-2.849-7.827-9.211-6.736-14.8.336-1.725 1.029-3.146 1.807-3.71.347-.252.798-.333 1.232-.333.266 0 .525.03.751.07 1.766.308 3.649 1.538 4.687 3.061 2.586 3.795 2.979 9.583 3.16 15.184.023.723.045 1.446.064 2.169-1.755-.226-3.456-.768-4.965-1.641zm40.069-119.687c0 4.097 0 6.57-15.98 6.57-15.99 0-15.99-2.473-15.99-6.57 0-2.861.69-7.033 1.865-11.496 4.653.952 9.367 1.447 14.123 1.447 4.747 0 9.459-.509 14.11-1.469 1.18 4.471 1.872 8.652 1.872 11.518zm46.627 119.689c-5.973 1.565-15.113 1.939-16.729-2.129-.212-.535-.411-1.243-.269-1.475.739-1.209 4.665-3.268 10.744-3.849 1.342-.128 2.652-.192 3.93-.192 4.285 0 8.208.719 11.744 2.15-2.651 2.756-5.728 4.528-9.42 5.495zm47.995-80.029c-3.277.229-8.306-1.404-13.253-3.207-15.02-5.475-14.173-7.798-12.77-11.651.803-2.209 2.682-5.844 5.686-10.172 4.05 2.499 8.312 4.576 12.771 6.199 4.469 1.627 9.07 2.769 13.767 3.466-.479 5.263-1.378 9.246-2.178 11.447-1.36 3.729-2.775 3.83-4.023 3.918z"/></g></g></svg>