<?xml version="1.0"?>
<svg xmlns="http://www.w3.org/2000/svg" viewBox="0 0 64 64" width="512" height="512"><g id="filled_outline" data-name="filled outline"><path d="M53,57a4,4,0,0,1-4,4H11V7a4,4,0,0,1,4-4H57a4,4,0,0,0-4,4Z" style="fill:#87ced9"/><path d="M57,3h0a4,4,0,0,1,4,4V9a0,0,0,0,1,0,0H53a0,0,0,0,1,0,0V7a4,4,0,0,1,4-4Z" style="fill:#e8594a"/><path d="M48.135,44.447A54.407,54.407,0,0,0,35,44.36h0c-1.677.191-3.346.453-5,.8V46l-8-3-6.713,4.8L15,48l7,5,8-3v.839c1,.209,2,.38,3,.532h0c.665.1,1.331.192,2,.268h0a54.407,54.407,0,0,0,13.135-.087L53,50.925v-5.85Z" style="fill:#73bec9"/><path d="M3,55H45v2a4,4,0,0,0,4,4H7a4,4,0,0,1-4-4Z" style="fill:#e8594a"/><path d="M23,11v3.2a12,12,0,0,0,7.126,10.965L32,26l1.874-.833A12,12,0,0,0,41,14.2V11h0a15,15,0,0,1-9-3h0a15,15,0,0,1-9,3Z" style="fill:#4398d1"/><rect x="31" y="12" width="2" height="2" style="fill:#5ea9db"/><rect x="34" y="19" width="2" height="2" style="fill:#5ea9db"/><rect x="26" y="14" width="2" height="2" style="fill:#5ea9db"/><rect x="36" y="14" width="2" height="2" style="fill:#5ea9db"/><rect x="28" y="19" width="2" height="2" style="fill:#5ea9db"/><rect x="17" y="30" width="30" height="2" style="fill:#73bec9"/><rect x="17" y="35" width="11" height="2" style="fill:#73bec9"/><rect x="30" y="35" width="17" height="2" style="fill:#73bec9"/><rect x="17" y="25" width="7" height="2" style="fill:#73bec9"/><rect x="40" y="25" width="7" height="2" style="fill:#73bec9"/><path d="M61,47.893l-12.865,1.66A54.364,54.364,0,0,1,30,48.839h0V43.161h0a54.364,54.364,0,0,1,18.135-.714L61,44.107Z" style="fill:#7a3e1a"/><path d="M47.4,46.5A61.156,61.156,0,0,1,30,46.238v2.6a54.364,54.364,0,0,0,18.135.714L61,47.893V44.742Z" style="fill:#703918"/><polygon points="30 44 22 41 15 46 22 51 30 48 30 44" style="fill:#fdbb3d"/><path d="M15.287,45.8,15,46l7,5,8-3V45.676A104.268,104.268,0,0,1,15.287,45.8Z" style="fill:#fdaf33"/><path d="M22,48a2,2,0,1,1,2-2A2,2,0,0,1,22,48Zm0-2h0Z" style="fill:#f58616"/><polygon points="22 45 16.4 45 15 46 16.4 47 22 47 22 45" style="fill:#f58616"/><path d="M33,42.629v6.742c.665.1,1.332.193,2,.269V42.36C34.332,42.436,33.665,42.527,33,42.629Z" style="fill:#d6d6d4"/><path d="M57,2H15a5.006,5.006,0,0,0-5,5V54H3a1,1,0,0,0-1,1v2a5.006,5.006,0,0,0,5,5H49a5.006,5.006,0,0,0,5-5V49.8l7.128-.92A1,1,0,0,0,62,47.893V44.107a1,1,0,0,0-.872-.991L54,42.2V10h7a1,1,0,0,0,1-1V7A5.006,5.006,0,0,0,57,2ZM11,60H7a3,3,0,0,1-3-3V56H44v1a4.973,4.973,0,0,0,1,3Zm41-3a3,3,0,0,1-6,0V55a1,1,0,0,0-1-1H12V7a3,3,0,0,1,3-3H53c-.03.039-.051.084-.079.124-.057.081-.107.166-.159.251a5.074,5.074,0,0,0-.288.528c-.045.1-.087.193-.126.292a5.055,5.055,0,0,0-.186.6c-.023.094-.052.184-.07.28A4.964,4.964,0,0,0,52,7V41.938l-3.737-.482a55.136,55.136,0,0,0-18.469.727.987.987,0,0,0-.622.438l-6.82-2.558a1.011,1.011,0,0,0-.933.123l-7,5a1,1,0,0,0,0,1.628l7,5A1,1,0,0,0,22,52a1.026,1.026,0,0,0,.352-.063l6.82-2.558a.987.987,0,0,0,.622.438A55.208,55.208,0,0,0,41.162,51a55.317,55.317,0,0,0,7.1-.458L52,50.062ZM33,43.631v4.738c-.668-.1-1.335-.218-2-.348V43.979Q32,43.786,33,43.631ZM22,44a1.993,1.993,0,0,0-1.722,1H18.121l4.026-2.876L29,44.693v2.614l-6.853,2.569L18.121,47h2.157A2,2,0,1,0,22,44Zm38,.987v2.026L48.007,48.561A53.211,53.211,0,0,1,35,48.639V43.361a53.21,53.21,0,0,1,13.007.078ZM60,8H54V7a3,3,0,0,1,6,0Z"/><path d="M29.72,26.082l1.874.832a1,1,0,0,0,.812,0l1.874-.833A13.011,13.011,0,0,0,42,14.2V11a1,1,0,0,0-1-1,14.094,14.094,0,0,1-8.4-2.8,1,1,0,0,0-1.2,0A14.094,14.094,0,0,1,23,10a1,1,0,0,0-1,1v3.2A13.013,13.013,0,0,0,29.72,26.082ZM24,11.968a16.13,16.13,0,0,0,8-2.74,16.13,16.13,0,0,0,8,2.74V14.2a11.008,11.008,0,0,1-6.532,10.051L32,24.906l-1.468-.652A11.011,11.011,0,0,1,24,14.2Z"/><rect x="31" y="12" width="2" height="2"/><rect x="34" y="19" width="2" height="2"/><rect x="26" y="14" width="2" height="2"/><rect x="36" y="14" width="2" height="2"/><rect x="28" y="19" width="2" height="2"/><rect x="17" y="30" width="30" height="2"/><rect x="17" y="35" width="11" height="2"/><rect x="30" y="35" width="17" height="2"/><rect x="17" y="25" width="7" height="2"/><rect x="40" y="25" width="7" height="2"/></g></svg>
