<?xml version="1.0" encoding="iso-8859-1"?>
<!-- Generator: Adobe Illustrator 19.0.0, SVG Export Plug-In . SVG Version: 6.00 Build 0)  -->
<svg version="1.1" id="Capa_1" xmlns="http://www.w3.org/2000/svg" xmlns:xlink="http://www.w3.org/1999/xlink" x="0px" y="0px"
	 viewBox="0 0 512 512" style="enable-background:new 0 0 512 512;" xml:space="preserve">
<rect x="139.659" y="143.501" style="fill:#444D56;" width="232.671" height="60.829"/>
<g>
	<path style="fill:#2B2A32;" d="M36.504,441.559v45.154c0,8.365,6.782,15.146,15.146,15.146h58.415
		c8.365,0,15.146-6.782,15.146-15.146v-77.089"/>
	<path style="fill:#2B2A32;" d="M386.782,409.625v77.089c0,8.365,6.782,15.146,15.146,15.146h58.415
		c8.365,0,15.146-6.782,15.146-15.146v-45.154"/>
</g>
<path style="fill:#0D1B24;" d="M338.109,461.329H173.88c-11.761,0-21.294-9.534-21.294-21.294l0,0l136.427-18.244l70.39,18.244l0,0
	C359.404,451.795,349.869,461.329,338.109,461.329z"/>
<path style="fill:#444D56;" d="M460.438,294.051H51.552c-15.589,0-28.227,12.638-28.227,28.227v87.348h465.339v-87.348
	C488.664,306.688,476.027,294.051,460.438,294.051z"/>
<rect x="140.42" y="321.424" style="fill:#616970;" width="231.15" height="85.16"/>
<g>
	<polyline style="fill:#9AA7B8;" points="452.172,440.035 504.396,440.035 504.396,389.859 452.172,389.859 411.111,389.859 
		100.879,389.859 59.828,389.859 7.604,389.859 7.604,440.035 59.828,440.035 	"/>
	<rect x="59.828" y="389.86" style="fill:#9AA7B8;" width="41.059" height="68.436"/>
	<rect x="411.111" y="389.86" style="fill:#9AA7B8;" width="41.059" height="68.436"/>
</g>
<path style="fill:#C0EAF9;" d="M429.36,294.049H82.63l28.287-84.931c4.573-13.758,17.449-23.035,31.947-23.035h226.263
	c14.498,0,27.374,9.277,31.947,23.035L429.36,294.049z"/>
<path style="fill:#A0D9F2;" d="M428.083,294.049H83.907l21.007-60.598c4.765-13.758,18.168-23.035,33.265-23.035h235.632
	c15.096,0,28.5,9.277,33.265,23.035L428.083,294.049z"/>
<rect x="106.699" y="103.961" style="fill:#C8E8EE;" width="298.602" height="57.787"/>
<rect x="106.699" y="103.961" style="fill:#E93438;" width="83.735" height="57.787"/>
<rect x="321.556" y="103.961" style="fill:#60D6FF;" width="83.735" height="57.787"/>
<polygon style="fill:#444D56;" points="357.121,266.678 154.869,266.678 139.66,294.051 372.329,294.051 "/>
<g>
	<rect x="398.944" y="321.424" style="fill:#FEFFFF;" width="63.87" height="33.455"/>
	<rect x="49.182" y="321.424" style="fill:#FEFFFF;" width="63.87" height="33.455"/>
</g>
<g>
	<path style="fill:#9AA7B8;" d="M439.111,267.667h34.686c12.758,0,23.101-10.342,23.101-23.101l0,0
		c0-8.239-6.678-14.917-14.917-14.917h-27.954c-8.239,0-14.917,6.678-14.917,14.917v23.101H439.111z"/>
	<path style="fill:#9AA7B8;" d="M72.877,267.667H38.191c-12.758,0-23.101-10.342-23.101-23.101l0,0
		c0-8.239,6.678-14.917,14.917-14.917h27.954c8.239,0,14.917,6.678,14.917,14.917v23.101H72.877z"/>
</g>
<path d="M504.396,382.255h-8.128v-59.978c0-19.789-16.042-35.831-35.831-35.831h-20.163l4.133-11.176h29.391
	c17.233,0,31.194-14.27,30.692-31.613c-0.351-12.078-10.424-21.612-22.508-21.612h-27.953c-12.438,0-22.521,10.083-22.521,22.521
	v21.741l-1.775,4.802l-21.44-64.396c-4.449-13.364-15.233-23.251-28.359-26.799v-10.56h25.362c4.199,0,7.604-3.405,7.604-7.604
	v-57.787c0-4.199-3.405-7.604-7.604-7.604H321.56H190.43h-83.735c-4.199,0-7.604,3.405-7.604,7.604v57.788
	c0,4.199,3.405,7.604,7.604,7.604h25.362v10.56c-13.126,3.549-23.91,13.436-28.36,26.799l-21.44,64.396l-1.775-4.802v-21.741
	c0-12.438-10.083-22.521-22.521-22.521H30.007c-12.083,0-22.157,9.534-22.508,21.612c-0.504,17.343,13.459,31.613,30.693,31.613
	h29.39l4.132,11.176H51.552c-19.789,0-35.831,16.042-35.831,35.831v20.679c0,4.199,3.405,7.604,7.604,7.604l0,0
	c4.199,0,7.604-3.405,7.604-7.604v-20.679c0-11.39,9.233-20.623,20.623-20.623h31.081h57.028h232.669h57.027h31.081
	c11.39,0,20.623,9.233,20.623,20.623v59.978h-28.832c-0.02,0-0.04-0.003-0.059-0.003H411.11c-0.02,0-0.039,0.003-0.059,0.003
	h-31.878v-60.832c0-4.199-3.405-7.604-7.604-7.604h-50.172c-4.199,0-7.604,3.405-7.604,7.604l0,0c0,4.199,3.405,7.604,7.604,7.604
	h42.568v53.228h-215.94v-53.228H285.91c4.199,0,7.604-3.405,7.604-7.604l0,0c0-4.199-3.405-7.604-7.604-7.604H140.421
	c-4.199,0-7.604,3.405-7.604,7.604v60.832h-31.875c-0.02,0-0.04-0.003-0.059-0.003H59.825c-0.02,0-0.039,0.003-0.059,0.003H30.929
	v-3.812c0-4.199-3.405-7.604-7.604-7.604l0,0c-4.199,0-7.604,3.405-7.604,7.604v3.812H7.604C3.405,382.256,0,385.66,0,389.86v50.176
	c0,4.199,3.405,7.604,7.604,7.604H28.9v39.076c0,12.565,10.185,22.75,22.75,22.75h58.415c12.565,0,22.75-10.185,22.75-22.75V447.64
	h13.188c3.347,12.257,14.572,21.294,27.876,21.294h164.228c13.303,0,24.529-9.039,27.876-21.294h13.191v39.076
	c0,12.565,10.185,22.75,22.75,22.75h58.415c12.565,0,22.75-10.185,22.75-22.75V447.64h21.306c4.199,0,7.604-3.405,7.604-7.604
	V389.86C512,385.659,508.595,382.255,504.396,382.255z M446.715,244.565c0-4.032,3.28-7.313,7.313-7.313h27.953
	c4.033,0,7.313,3.281,7.313,7.313c0,8.545-6.951,15.497-15.497,15.497h-27.082L446.715,244.565L446.715,244.565z M397.691,154.144
	h-25.362h-43.165v-42.579h68.527V154.144z M313.956,111.565v42.58H198.033v-42.58H313.956z M114.299,111.565h68.527v42.58H139.66
	h-25.362C114.299,154.145,114.299,111.565,114.299,111.565z M190.43,169.352H321.56h43.165v9.124H147.264v-9.124H190.43z
	 M65.273,260.063H38.192c-8.546,0-15.498-6.952-15.498-15.497c0-4.032,3.28-7.313,7.313-7.313h27.954
	c4.032,0,7.312,3.281,7.312,7.313V260.063z M152.584,286.447l6.759-12.165h193.303l6.759,12.165H152.584z M376.804,286.447
	l-13.036-23.462c-1.34-2.414-3.885-3.91-6.647-3.91H154.869c-2.762,0-5.306,1.497-6.647,3.91l-13.036,23.462H93.179l24.947-74.93
	c3.551-10.667,13.49-17.833,24.732-17.833h226.273c11.242,0,21.182,7.166,24.732,17.833l24.947,74.93H376.804z M418.714,397.463
	h25.851v53.222h-25.851V397.463z M371.569,397.463h31.937v34.968h-44.102H152.586h-44.099v-34.968h31.934H371.569z M67.429,397.463
	h25.85v53.222h-25.85V397.463z M15.208,397.463h8.117h28.896v34.968H15.208V397.463z M117.608,486.714
	c0,4.159-3.383,7.542-7.542,7.542H51.65c-4.16,0-7.542-3.383-7.542-7.542v-39.076h8.113v10.65c0,4.199,3.404,7.604,7.604,7.604
	h41.058c4.2,0,7.604-3.405,7.604-7.604v-10.65h9.121V486.714z M338.109,453.725H173.88c-4.738,0-8.921-2.419-11.38-6.086h186.988
	C347.03,451.306,342.846,453.725,338.109,453.725z M467.885,486.714c0,4.159-3.383,7.542-7.542,7.542h-58.415
	c-4.16,0-7.542-3.383-7.542-7.542v-39.076h9.121v10.65c0,4.199,3.404,7.604,7.604,7.604h41.059c4.2,0,7.604-3.405,7.604-7.604
	v-10.65h8.112v39.076H467.885z M496.792,432.431h-37.019v-34.968h28.891h8.128V432.431z"/>
<path d="M255.995,64.422c4.2,0,7.604-3.405,7.604-7.604v-46.68c0-4.199-3.404-7.604-7.604-7.604s-7.604,3.405-7.604,7.604v46.68
	C248.391,61.018,251.796,64.422,255.995,64.422z"/>
<path d="M186.605,70.101c1.102,3.125,4.036,5.077,7.171,5.077c0.838,0,1.693-0.14,2.529-0.435c3.96-1.397,6.039-5.739,4.642-9.7
	l-15.525-44.023c-1.397-3.961-5.742-6.039-9.7-4.642c-3.96,1.397-6.039,5.739-4.642,9.7L186.605,70.101z"/>
<path d="M315.684,74.743c0.836,0.295,1.689,0.435,2.529,0.435c3.134,0,6.069-1.953,7.171-5.076l15.525-44.023
	c1.396-3.961-0.682-8.304-4.642-9.701c-3.96-1.396-8.303,0.681-9.7,4.642l-15.525,44.023
	C309.645,69.004,311.724,73.346,315.684,74.743z"/>
<path d="M462.812,362.483c4.2,0,7.604-3.405,7.604-7.604v-33.456c0-4.199-3.404-7.604-7.604-7.604h-63.869
	c-4.2,0-7.604,3.405-7.604,7.604v33.456c0,4.199,3.404,7.604,7.604,7.604H462.812z M406.546,329.027h48.661v18.249h-48.661V329.027z
	"/>
<path d="M113.048,362.483c4.2,0,7.604-3.405,7.604-7.604v-33.456c0-4.199-3.404-7.604-7.604-7.604h-63.87
	c-4.2,0-7.604,3.405-7.604,7.604v33.456c0,4.199,3.404,7.604,7.604,7.604H113.048z M56.781,329.027h48.662v18.249H56.781V329.027z"
	/>
<g>
</g>
<g>
</g>
<g>
</g>
<g>
</g>
<g>
</g>
<g>
</g>
<g>
</g>
<g>
</g>
<g>
</g>
<g>
</g>
<g>
</g>
<g>
</g>
<g>
</g>
<g>
</g>
<g>
</g>
</svg>
