<?xml version="1.0" encoding="iso-8859-1"?>
<!-- Generator: Adobe Illustrator 19.0.0, SVG Export Plug-In . SVG Version: 6.00 Build 0)  -->
<svg version="1.1" id="Capa_1" xmlns="http://www.w3.org/2000/svg" xmlns:xlink="http://www.w3.org/1999/xlink" x="0px" y="0px"
	 viewBox="0 0 512.078 512.078" style="enable-background:new 0 0 512.078 512.078;" xml:space="preserve">
<polygon style="fill:#E55934;" points="503.543,170.694 8.539,170.694 42.677,8.537 469.405,8.537 "/>
<polygon style="fill:#EA7A5D;" points="42.677,42.675 469.405,42.675 496.358,170.694 503.543,170.694 469.405,8.537 42.677,8.537 
	8.539,170.694 15.725,170.694 "/>
<path style="fill:#B05C46;" d="M486.474,469.404H25.608c-9.429,0-17.069,7.639-17.069,17.069v17.069h495.005v-17.069
	C503.543,477.043,495.906,469.404,486.474,469.404z"/>
<rect x="34.142" y="170.695" style="fill:#EA7A5D;" width="136.553" height="213.366"/>
<g>
	<rect x="68.28" y="204.834" style="fill:#FDF1CC;" width="68.273" height="93.88"/>
	<rect x="68.28" y="298.714" style="fill:#FDF1CC;" width="68.273" height="85.346"/>
</g>
<g>
	<rect x="136.559" y="136.555" style="fill:#E55934;" width="238.966" height="34.139"/>
	<rect x="34.142" y="384.06" style="fill:#E55934;" width="136.553" height="85.346"/>
</g>
<g>
	<rect x="170.693" y="213.368" style="fill:#F5BB00;" width="170.693" height="256.039"/>
	<rect x="68.28" y="384.06" style="fill:#F5BB00;" width="68.273" height="34.139"/>
</g>
<rect x="341.385" y="170.695" style="fill:#EA7A5D;" width="136.553" height="213.366"/>
<g>
	<rect x="375.525" y="204.834" style="fill:#FDF1CC;" width="68.28" height="93.88"/>
	<rect x="375.525" y="298.714" style="fill:#FDF1CC;" width="68.28" height="85.346"/>
</g>
<rect x="341.385" y="384.06" style="fill:#E55934;" width="136.553" height="85.346"/>
<rect x="375.525" y="384.06" style="fill:#F5BB00;" width="68.28" height="34.139"/>
<rect x="256.039" y="170.695" style="fill:#FDF1CC;" width="85.346" height="42.673"/>
<rect x="170.693" y="170.695" style="fill:#E55934;" width="85.346" height="42.673"/>
<g>
	<rect x="170.693" y="170.695" style="fill:#FDF1CC;" width="85.346" height="42.673"/>
	<rect x="204.833" y="247.507" style="fill:#FDF1CC;" width="51.206" height="110.946"/>
	<rect x="256.039" y="247.507" style="fill:#FDF1CC;" width="51.206" height="110.946"/>
</g>
<path style="fill:#F5BB00;" d="M341.387,68.278H170.695c-18.853,0-34.139,15.286-34.139,34.139v34.138h238.968v-34.138
	C375.525,83.564,360.24,68.278,341.387,68.278z"/>
<rect x="136.559" y="136.555" style="fill:#B05C46;" width="238.966" height="34.139"/>
<path d="M392.594,145.09H366.99c-4.72,0-8.535-3.814-8.535-8.535c0-4.72,3.814-8.535,8.535-8.535h25.604
	c4.719,0,8.535,3.814,8.535,8.535C401.129,141.276,397.313,145.09,392.594,145.09z"/>
<path d="M256.041,221.901h-85.346c-4.72,0-8.535-3.815-8.535-8.535v-42.672c0-4.72,3.815-8.535,8.535-8.535h85.346
	c4.719,0,8.534,3.814,8.534,8.535v42.673C264.575,218.086,260.761,221.901,256.041,221.901z M179.23,204.832h68.276v-25.604H179.23
	V204.832L179.23,204.832z"/>
<path d="M486.474,460.869v-76.812v-204.83h17.069c2.577,0,5.009-1.16,6.622-3.157c1.622-1.989,2.262-4.617,1.725-7.134
	L477.753,6.778c-0.83-3.951-4.31-6.776-8.348-6.776H42.677c-4.037,0-7.519,2.825-8.355,6.776L0.183,168.936
	c-0.529,2.517,0.102,5.146,1.724,7.134c1.622,1.998,4.054,3.157,6.631,3.157h17.069v204.83v76.812
	c-14.115,0-25.604,11.488-25.604,25.605v17.069c0,4.718,3.814,8.534,8.535,8.534h495.005c4.719,0,8.535-3.815,8.535-8.534v-17.069
	C512.078,472.357,500.591,460.869,486.474,460.869z M179.23,460.869v-76.812V221.901h76.812h76.81v162.157v76.811L179.23,460.869
	L179.23,460.869z M366.99,128.021H145.092v-25.604c0-14.116,11.488-25.604,25.605-25.604h170.692
	c14.115,0,25.603,11.488,25.603,25.604v25.604H366.99z M145.092,145.09h221.899v17.069h-25.603h-85.346h-85.346h-25.605V145.09
	C145.091,145.09,145.092,145.09,145.092,145.09z M332.851,204.832h-68.276v-25.604h68.276V204.832z M247.506,179.229v25.603H179.23
	v-25.604L247.506,179.229L247.506,179.229z M349.921,392.592h17.069v25.605c0,4.719,3.814,8.535,8.535,8.535h68.277
	c4.719,0,8.534-3.815,8.534-8.535v-25.605h17.069v68.276H349.921V392.592z M384.058,392.592h51.208v17.069h-51.208V392.592z
	 M384.058,307.247h51.208v68.277h-51.208V307.247z M435.266,290.177h-51.208v-76.812h51.208V290.177z M469.405,375.524h-17.069
	v-76.812v-93.88c0-4.719-3.815-8.535-8.535-8.535h-68.277c-4.72,0-8.535,3.814-8.535,8.535v93.881v76.812H349.92V213.367v-34.138
	h25.605h93.88V375.524z M49.608,17.071h412.876l30.545,145.088h-15.088h-93.883v-25.605v-34.138
	c0-23.53-19.142-42.673-42.672-42.673H170.695c-23.53,0-42.674,19.143-42.674,42.673v25.604h-8.535c-4.72,0-8.535,3.815-8.535,8.535
	s3.815,8.535,8.535,8.535h8.535v17.069H34.142H19.053L49.608,17.071z M136.557,179.229h25.603v34.139v162.157h-17.069v-76.812
	v-93.88c0-4.719-3.814-8.535-8.535-8.535H68.28c-4.72,0-8.536,3.814-8.536,8.535v93.881v76.812H42.677V179.229H136.557z
	 M76.815,307.247h51.207v68.277H76.815V307.247z M128.022,290.177H76.815v-76.812h51.207V290.177z M76.815,392.592h51.207v17.069
	H76.815V392.592z M42.677,392.592h17.069v25.605c0,4.719,3.815,8.535,8.535,8.535h68.276c4.72,0,8.535-3.815,8.535-8.535v-25.605
	h17.069v68.276H42.677V392.592z M495.009,495.007H17.073v-8.535c0-4.71,3.824-8.534,8.535-8.534h8.535h136.553h170.692h136.553
	h8.534c4.711,0,8.535,3.823,8.535,8.534L495.009,495.007L495.009,495.007z"/>
<path d="M307.249,238.97h-51.207h-51.207c-4.72,0-8.535,3.814-8.535,8.535v110.949c0,4.72,3.815,8.536,8.535,8.536h51.207h51.207
	c4.719,0,8.535-3.815,8.535-8.536V247.505C315.783,242.784,311.967,238.97,307.249,238.97z M213.368,256.039h34.138v93.881h-34.138
	V256.039L213.368,256.039z M298.713,349.92h-34.139v-93.881h34.138L298.713,349.92L298.713,349.92z"/>
<path d="M307.249,384.058H290.18c-4.72,0-8.536,3.814-8.536,8.535c0,4.72,3.815,8.534,8.536,8.534h17.069
	c4.719,0,8.535-3.814,8.535-8.534C315.783,387.872,311.967,384.058,307.249,384.058z"/>
<g>
</g>
<g>
</g>
<g>
</g>
<g>
</g>
<g>
</g>
<g>
</g>
<g>
</g>
<g>
</g>
<g>
</g>
<g>
</g>
<g>
</g>
<g>
</g>
<g>
</g>
<g>
</g>
<g>
</g>
</svg>
