<svg height="464pt" viewBox="0 -8 464 464" width="464pt" xmlns="http://www.w3.org/2000/svg"><path d="m440 288h-32c17.671875 0 32-14.328125 32-32s-14.328125-32-32-32h-32c17.671875 0 32-14.328125 32-32s-14.328125-32-32-32h24c17.671875 0 32-14.328125 32-32s-14.328125-32-32-32h16c26.507812 0 48-21.492188 48-48s-21.492188-48-48-48h-368c-26.507812 0-48 21.492188-48 48s21.492188 48 48 48h16c-17.671875 0-32 14.328125-32 32s14.328125 32 32 32h40c-17.671875 0-32 14.328125-32 32s14.328125 32 32 32h32c-17.671875 0-32 14.328125-32 32s14.328125 32 32 32h48c-8.835938 0-16 7.164062-16 16s7.164062 16 16 16h56c-8.835938 0-16 7.164062-16 16s7.164062 16 16 16h12c-8.835938 0-16 7.164062-16 16s7.164062 16 16 16h-24c-8.835938 0-16 7.164062-16 16s7.164062 16 16 16h-36c-8.835938 0-16 7.164062-16 16s7.164062 16 16 16h64c8.835938 0 16-7.164062 16-16s-7.164062-16-16-16h68c8.835938 0 16-7.164062 16-16s-7.164062-16-16-16h56c8.835938 0 16-7.164062 16-16s-7.164062-16-16-16h36c8.835938 0 16-7.164062 16-16s-7.164062-16-16-16h24c8.835938 0 16-7.164062 16-16s-7.164062-16-16-16zm0 0" fill="#92aeba"/></svg>